<svg width="106" height="86" viewBox="0 0 106 86" fill="none" xmlns="http://www.w3.org/2000/svg">
<path d="M0 7.125C0 3.18398 3.38348 0 7.57143 0H98.4286C102.617 0 106 3.18398 106 7.125C106 11.066 102.617 14.25 98.4286 14.25H7.57143C3.38348 14.25 0 11.066 0 7.125ZM0 42.75C0 38.809 3.38348 35.625 7.57143 35.625H98.4286C102.617 35.625 106 38.809 106 42.75C106 46.691 102.617 49.875 98.4286 49.875H7.57143C3.38348 49.875 0 46.691 0 42.75ZM106 78.375C106 82.316 102.617 85.5 98.4286 85.5H7.57143C3.38348 85.5 0 82.316 0 78.375C0 74.434 3.38348 71.25 7.57143 71.25H98.4286C102.617 71.25 106 74.434 106 78.375Z" fill="#0E232E"/>
</svg>
